# xmcd CD database file
#
# Track frame offsets:
#	150
#	16990
#	33270
#	47415
#	69922
#	92337
#	113332
#	135770
#	152422
#	168900
#	184510
#	200700
#	219270
#	240810
#	258792
#	272822
#	291752
#
# Disc length: 4159 seconds
#
# Revision: 1
# Processed by: cddbd v1.5.2PL0 Copyright (c) Steve Scherf et al.
# Submitted via: CDex 1.70beta2
#
DISCID=c5103d11
DTITLE=Tim McGraw - Live Like You Were Dying - COCB-53286
DYEAR=2004
DGENRE=Classical
TTITLE0=How Bad Do You Want It
TTITLE1=My Old Friend
TTITLE2=Can't Tell Me Nothin'
TTITLE3=Old Town New
TTITLE4=Live Like You Were Dying
TTITLE5=Drugs or Jesus
TTITLE6=Back When
TTITLE7=Something's Broken
TTITLE8=Open Season on My Heart
TTITLE9=Everybody Hates Me
TTITLE10=Walk Like a Man
TTITLE11=Blank Sheet of Paper
TTITLE12=Just Be Your Tear
TTITLE13=Do You Want Fries with That
TTITLE14=Kill Myself
TTITLE15=We Carry On
TTITLE16=Live Like You Were Dying [AC Mix]
EXTD=YEAR: 2004
EXTT0=
EXTT1=
EXTT2=
EXTT3=
EXTT4=
EXTT5=
EXTT6=
EXTT7=
EXTT8=
EXTT9=
EXTT10=
EXTT11=
EXTT12=
EXTT13=
EXTT14=
EXTT15=
EXTT16=
PLAYORDER=
